<?xml version="1.0" encoding="UTF-8" standalone="no"?>
<svg
  version="1.1"
  width="97"
  height="97"
  xmlns="http://www.w3.org/2000/svg"
>
  <path
    style="fill:#3071aa;fill-opacity:1;stroke-width:0.506105"
    d="M 17.794717,95.260253 C 14.684212,94.624669 12.303339,92.803364 10.970722,90.04011 9.9942371,88.015243 10.028227,88.604332 10.028227,73.70765 V 60.373974 l 2.342791,0.03666 2.342798,0.03666 0.03409,13.055735 0.03405,13.055673 0.311682,0.772029 c 0.522992,1.29552 1.396754,2.093567 2.835078,2.58949 0.71565,0.246766 1.713401,0.253984 35.283961,0.253984 h 34.547528 l 0.736414,-0.362229 c 0.904751,-0.444953 1.59439,-1.08161 2.096047,-1.935081 l 0.381233,-0.648612 V 68.816341 50.404416 l -0.307011,-0.575134 c -1.474704,-2.761791 0.61991,-2.585888 -30.256786,-2.540969 -13.71689,0.02003 -24.939806,0.0057 -24.939799,-0.03213 0,-0.0378 1.070185,-1.137286 2.378176,-2.44377 l 2.378166,-2.375407 23.699824,9.98e-4 c 23.124749,10e-4 23.726548,0.0076 24.801336,0.265021 3.403517,0.815962 5.971827,3.215924 6.952047,6.496247 0.335849,1.123673 0.453381,36.5184 0.127068,38.248437 -0.782506,4.148417 -4.092672,7.286086 -8.305069,7.871939 -1.661499,0.231118 -68.564366,0.174198 -69.707037,-0.05987 z M 32.370761,81.931849 C 29.09179,81.479987 26.46176,79.313211 25.390278,76.18095 24.993655,75.021501 24.846202,58.833605 25.224028,57.929341 c 0.66977,-1.602988 3.129289,-1.664794 3.919129,-0.09846 l 0.301293,0.597464 v 7.856646 c 0,8.737855 -0.003,8.705461 0.893148,9.752375 1.666279,1.946676 5.507352,1.856666 7.044074,-0.165014 0.88538,-1.164817 0.82682,-0.544982 0.900502,-9.533366 l 0.0669,-8.168205 0.306331,-0.492646 c 0.873313,-1.404446 2.958213,-1.317313 3.777766,0.157909 l 0.334791,0.602577 -0.0094,8.10125 c -0.0102,8.975259 0.002,8.825514 -0.891878,10.71239 -1.578603,3.332341 -5.445243,5.237895 -9.495878,4.679629 z m 16.289053,-0.183496 c -1.471687,-0.65969 -1.406006,-0.07982 -1.406006,-12.416949 0,-12.200302 -0.06372,-11.49652 1.110863,-12.274238 l 0.542801,-0.359395 4.110273,-0.03885 c 6.921339,-0.06546 9.324132,1.071972 10.831059,5.12728 1.245547,3.351885 -1.230221,9.440295 -3.838763,9.440295 -0.255648,0 -0.207307,0.200655 0.216944,0.901844 4.377706,7.233864 4.802687,9.243688 2.063229,9.757602 -1.566024,0.29382 -2.083982,-0.313059 -5.269439,-6.173627 -0.280214,-0.515532 -0.833072,-1.509782 -1.228581,-2.209429 l -0.719108,-1.272098 -1.633273,-0.0378 -1.63327,-0.0378 -0.002,4.054741 c -0.002,3.947872 -0.0098,4.06859 -0.301304,4.580323 -0.540234,0.949349 -1.865771,1.395836 -2.843274,0.957732 z M 57.84961,67.158399 c 2.097052,-0.893197 2.595526,-3.361625 1.012883,-5.015743 -0.926887,-0.96873 -1.922623,-1.187758 -5.315149,-1.169132 l -1.673809,0.0094 -0.03628,3.076916 c -0.02003,1.692303 -0.003,3.162505 0.03704,3.267126 0.106583,0.277757 5.269379,0.132283 5.975232,-0.168378 z m 11.981906,14.32982 c -0.286488,-0.173405 -0.662812,-0.549641 -0.83622,-0.83622 L 68.67997,80.131138 68.67946,69.327027 c -4.58e-4,-7.329304 0.04532,-10.925347 0.142148,-11.181066 0.643744,-1.699014 3.094476,-1.983076 4.036659,-0.46789 l 0.306293,0.492646 0.06694,9.50725 0.0669,9.507268 3.883238,0.06686 c 3.330814,0.05737 3.942893,0.09959 4.302492,0.296466 1.317782,0.721459 1.642458,2.313626 0.69247,3.395591 -0.774119,0.881726 -0.616029,0.860818 -6.494735,0.860073 l -5.329376,-5.17e-4 z M 12.597769,56.28301 C 2.5333541,54.595016 -2.2969133,43.089327 3.4835719,34.57302 4.5005359,33.074737 14.221908,23.288481 14.693293,23.288481 c 0.06308,0 0.152398,0.858666 0.198611,1.908145 0.04727,1.07309 0.202408,2.464855 0.354542,3.180244 l 0.270508,1.272097 -1.172053,1.138195 c -0.644637,0.626006 -2.184029,2.121467 -3.420878,3.323247 -2.319088,2.253351 -3.2007171,3.304894 -3.8375168,4.577137 -3.887916,7.767533 4.3098728,15.541049 12.2782348,11.642788 2.286128,-1.118411 12.85373,-11.469331 13.937126,-13.651362 2.545,-5.125748 0.800266,-10.867829 -3.374045,-11.104353 -4.319655,-0.244758 -3.749731,-4.89658 0.594888,-4.855591 8.056206,0.07601 11.855137,11.932162 6.393094,19.952339 -1.256674,1.84524 -11.61012,12.134395 -13.417148,13.333824 -3.155744,2.094667 -7.090594,2.916876 -10.900887,2.277819 z M 26.201489,37.140558 C 18.743497,35.332497 15.930894,24.127077 21.087726,16.767322 22.092005,15.334032 32.420362,5.1356457 33.880352,4.1356732 46.79362,-4.7087942 62.607181,10.782511 53.910005,23.757149 53.608436,24.207051 51.060022,26.88798 48.118518,29.849827 L 42.86558,35.139076 42.7912,33.592183 c -0.04082,-0.850782 -0.206513,-2.176445 -0.368088,-2.945904 -0.161575,-0.769466 -0.300737,-1.497823 -0.309203,-1.618578 -0.0083,-0.120752 1.581369,-1.859511 3.53303,-3.86391 3.777418,-3.87948 4.438714,-4.700875 5.07386,-6.302251 C 53.697981,11.355255 45.114811,4.088671 37.705925,7.8430318 35.600267,8.9100524 25.559835,18.866354 24.439557,20.998243 c -2.496663,4.751168 -0.222488,11.03616 4.221408,11.666418 1.845662,0.261762 2.689358,1.513806 2.05046,3.042905 -0.597729,1.430558 -2.295214,1.969912 -4.509952,1.432992 z"
  />
</svg>
