<?xml version="1.0" encoding="UTF-8" standalone="no"?>
<!-- Created with Inkscape (http://www.inkscape.org/) -->

<svg
   width="300"
   height="200"
   viewBox="0 0 300 200"
   version="1.1"
   id="svg1"
   inkscape:version="1.4.2 (f4327f4, 2025-05-13)"
   sodipodi:docname="thumbnail.svg"
   xml:space="preserve"
   inkscape:export-filename="thumbnail.png"
   inkscape:export-xdpi="96"
   inkscape:export-ydpi="96"
   xmlns:inkscape="http://www.inkscape.org/namespaces/inkscape"
   xmlns:sodipodi="http://sodipodi.sourceforge.net/DTD/sodipodi-0.dtd"
   xmlns:xlink="http://www.w3.org/1999/xlink"
   xmlns="http://www.w3.org/2000/svg"
   xmlns:svg="http://www.w3.org/2000/svg"><sodipodi:namedview
   id="namedview1"
   pagecolor="#ffffff"
   bordercolor="#666666"
   borderopacity="1.0"
   inkscape:showpageshadow="2"
   inkscape:pageopacity="0.0"
   inkscape:pagecheckerboard="0"
   inkscape:deskcolor="#d1d1d1"
   inkscape:document-units="mm"
   inkscape:zoom="2.0175"
   inkscape:cx="210.65675"
   inkscape:cy="139.52912"
   inkscape:window-width="1920"
   inkscape:window-height="1009"
   inkscape:window-x="-8"
   inkscape:window-y="-8"
   inkscape:window-maximized="1"
   inkscape:current-layer="layer2"
   showgrid="false" /><defs
   id="defs1"><linearGradient
     id="linearGradient1"
     inkscape:collect="always"><stop
       style="stop-color:#5cdfe5;stop-opacity:1;"
       offset="0"
       id="stop1" /><stop
       style="stop-color:#004bad;stop-opacity:1;"
       offset="1"
       id="stop2" /></linearGradient><linearGradient
     inkscape:collect="always"
     xlink:href="#linearGradient1"
     id="linearGradient2"
     x1="0"
     y1="100"
     x2="300"
     y2="100"
     gradientUnits="userSpaceOnUse" /></defs><g
   inkscape:label="Background"
   inkscape:groupmode="layer"
   id="layer1"
   style="display:inline"
   sodipodi:insensitive="true"><rect
     style="fill:url(#linearGradient2);stroke-width:10.371"
     id="rect1"
     width="300"
     height="200"
     x="0"
     y="0" /></g><g
   inkscape:groupmode="layer"
   id="layer2"
   inkscape:label="Text"><text
   xml:space="preserve"
   style="font-size:29.3333px;line-height:1.25;font-family:sans-serif;text-align:center;text-anchor:middle;fill:#ffffff;fill-opacity:1"
   x="143.27078"
   y="27.819571"
   id="text2"><tspan
     x="143.27078"
     y="27.819571"
     id="tspan3"
     sodipodi:role="line"
     style="font-size:29.3333px;fill:#ffffff;fill-opacity:1">Create URL alias</tspan><tspan
     x="143.27078"
     y="64.486198"
     sodipodi:role="line"
     style="font-size:29.3333px;fill:#ffffff;fill-opacity:1"
     id="tspan1">for pages, files, ...</tspan></text>
	   
	   
    
	   <path
   style="fill:#f4d10a;fill-opacity:1;stroke-width:0.602246"
   d="m 117.07507,189.30771 c -3.70138,-0.75632 -6.53452,-2.92361 -8.12029,-6.21177 -1.16199,-2.40952 -1.12154,-1.70852 -1.12154,-19.43501 v -15.86657 l 2.78784,0.0437 2.78784,0.0437 0.0406,15.53584 0.0405,15.53575 0.3709,0.91868 c 0.62234,1.54162 1.66208,2.49127 3.37363,3.0814 0.85159,0.29365 2.03888,0.30223 41.98657,0.30223 h 41.11026 l 0.87631,-0.43103 c 1.07662,-0.52949 1.89726,-1.28708 2.49421,-2.30269 l 0.45366,-0.77182 v -21.9096 -21.90949 l -0.36534,-0.6844 c -1.75484,-3.28642 0.73767,-3.07711 -36.00443,-3.02366 -16.32258,0.0238 -29.67743,0.007 -29.67741,-0.0382 0,-0.045 1.27347,-1.35332 2.82994,-2.908 l 2.82992,-2.82663 28.2019,10e-4 c 27.51757,0.001 28.23369,0.01 29.51265,0.31536 4.05006,0.97096 7.10625,3.82682 8.27267,7.73028 0.39965,1.33714 0.53951,43.45551 0.15121,45.5142 -0.93116,4.93646 -4.87013,8.67016 -9.88272,9.36731 -1.97712,0.27502 -81.58901,0.20729 -82.94874,-0.0713 z m 17.34495,-15.86029 c -3.90185,-0.5377 -7.03149,-3.11609 -8.30652,-6.84336 -0.47196,-1.3797 -0.64742,-20.64267 -0.19783,-21.71872 0.797,-1.9075 3.72373,-1.98104 4.66361,-0.11721 l 0.35854,0.71096 v 9.34911 c 0,10.39772 -0.004,10.35917 1.0628,11.60496 1.98281,2.31646 6.55355,2.20936 8.38219,-0.19637 1.05357,-1.38608 0.98389,-0.6485 1.07156,-11.34433 l 0.0796,-9.71987 0.36452,-0.58622 c 1.03921,-1.67124 3.52016,-1.56756 4.4954,0.1879 l 0.39839,0.71704 -0.0107,9.64019 c -0.0121,10.68022 0.002,10.50203 -1.0613,12.74733 -1.87848,3.96536 -6.47963,6.23291 -11.29974,5.56859 z m 19.38335,-0.21836 c -1.75125,-0.78501 -1.67309,-0.095 -1.67309,-14.7757 0,-14.5179 -0.0758,-13.68043 1.32189,-14.60587 l 0.64591,-0.42767 4.89106,-0.0462 c 8.23614,-0.0779 11.09536,1.2756 12.88855,6.10126 1.48216,3.98863 -1.46391,11.2336 -4.56797,11.2336 -0.30422,0 -0.2467,0.23877 0.25815,1.07316 5.2093,8.60802 5.71501,10.99964 2.45516,11.61118 -1.8635,0.34963 -2.47986,-0.37253 -6.27043,-7.34638 -0.33344,-0.61347 -0.99132,-1.79659 -1.46197,-2.62914 l -0.85571,-1.51375 -1.94353,-0.045 -1.94353,-0.045 -0.002,4.82499 c -0.002,4.69781 -0.0119,4.84147 -0.35854,5.45041 -0.64286,1.12969 -2.2202,1.66099 -3.38339,1.13966 z m 10.93552,-17.36149 c 2.49541,-1.06287 3.08857,-4.00021 1.20528,-5.96854 -1.10296,-1.15275 -2.28784,-1.41339 -6.32482,-1.39123 l -1.99177,0.0107 -0.0432,3.66142 c -0.0238,2.01377 -0.004,3.76326 0.044,3.88776 0.12683,0.33051 6.27036,0.1574 7.1103,-0.20037 z m 14.258,17.05194 c -0.34091,-0.20635 -0.78872,-0.65405 -0.99507,-0.99507 l -0.37522,-0.6198 -6e-4,-12.85648 c -5.5e-4,-8.7216 0.0539,-13.00076 0.16915,-13.30505 0.76603,-2.02176 3.6823,-2.35978 4.80346,-0.55677 l 0.36449,0.58623 0.0796,11.31327 0.0796,11.31329 4.62091,0.0796 c 3.96354,0.0683 4.69189,0.11852 5.1198,0.35278 1.56811,0.85851 1.95447,2.75313 0.82402,4.04062 -0.92118,1.04922 -0.73306,1.02434 -7.7285,1.02345 l -6.34175,-6.1e-4 z m -68.10598,-29.99324 c -11.97628,-2.00865 -17.724115,-15.69998 -10.84556,-25.83407 1.21015,-1.7829 12.77821,-13.42817 13.33915,-13.42817 0.0751,0 0.18135,1.02178 0.23634,2.27062 0.0563,1.27694 0.24086,2.93308 0.42188,3.78437 l 0.3219,1.51375 -1.39469,1.3544 c -0.7671,0.74493 -2.59892,2.52447 -4.07072,3.95454 -2.75963,2.6814 -3.80874,3.9327 -4.56651,5.44663 -4.626465,9.24306 5.1286,18.49326 14.61065,13.85448 2.7204,-1.33088 15.29545,-13.64809 16.58464,-16.24462 3.02846,-6.09944 0.95229,-12.9323 -4.01498,-13.21375 -5.14023,-0.29126 -4.46204,-5.82675 0.7079,-5.77797 9.58657,0.0904 14.10715,14.19882 7.60753,23.74253 -1.49539,2.19576 -13.8156,14.43946 -15.9659,15.86674 -3.75521,2.49258 -8.43753,3.47097 -12.97163,2.71052 z m 16.18791,-22.77879 c -8.87474,-2.15153 -12.22163,-15.48555 -6.08519,-24.243385 1.19505,-1.705561 13.48541,-13.841254 15.22274,-15.031186 15.36631,-10.524579 34.18384,7.909487 23.83453,23.348811 -0.35886,0.53537 -3.39137,3.72557 -6.89164,7.25006 l -6.2508,6.29401 -0.0885,-1.84075 c -0.0486,-1.0124 -0.24575,-2.58988 -0.43801,-3.50551 -0.19227,-0.91564 -0.35787,-1.78235 -0.36794,-1.92605 -0.01,-0.14369 1.88177,-2.21275 4.20418,-4.59791 4.49497,-4.61643 5.28189,-5.59386 6.0377,-7.499435 3.54273,-8.932195 -6.67092,-17.579156 -15.48722,-13.111607 -2.50565,1.269713 -14.45339,13.117336 -15.78648,15.654202 -2.97093,5.65371 -0.26474,13.13261 5.02332,13.88259 2.19627,0.31149 3.20024,1.80138 2.43997,3.62095 -0.71127,1.7023 -2.73121,2.34412 -5.36667,1.70521 z"
   id="path1" /></g>
	   
	   
	   </svg>
